<svg width="513" height="512" viewBox="0 0 513 512" fill="none" xmlns="http://www.w3.org/2000/svg">
<path d="M512 0H0V512H512V0Z" fill="url(#paint0_linear)"/>
<path d="M165.83 317.008C165.83 323.447 166.193 329.08 166.924 333.909C167.656 338.738 169.339 342.62 171.976 345.548C174.613 348.476 178.345 350.672 183.174 352.14C188.003 353.6 194.374 354.692 202.284 354.692C209.014 354.692 236.914 354.852 239.549 354.559L228.772 412.941C228.772 412.941 222.701 413.375 214.654 413.375C206.599 413.375 203.746 413.375 195.258 413.375C178.858 413.375 164.442 411.982 151.997 409.202C139.554 406.417 129.16 401.661 120.815 394.926C112.472 388.191 106.244 379.258 102.146 368.135C98.0487 357.005 96 343.247 96 326.855V99.7984H165.83V317.008Z" fill="black"/>
<path d="M292.657 413.284C285.927 413.284 278.899 413.284 271.586 413.284C264.272 413.284 259.148 413.109 247.051 412.405L258.022 353.589C281.137 354.17 279.783 354.463 293.536 354.463C303.189 354.463 311.163 353.954 317.455 352.928C323.749 351.906 328.723 350.223 332.38 347.883C336.037 345.544 338.524 342.396 339.841 338.443C341.159 334.496 341.82 329.447 341.82 323.298C341.82 322.995 341.82 322.688 341.817 322.378H341.814C341.791 319.13 341.673 315.883 341.434 312.645C341.196 309.47 340.915 306.227 339.797 303.222C338.627 300.091 336.593 297.475 333.977 295.417C331.524 293.489 328.676 292.022 325.753 290.949C325.259 290.767 324.755 290.607 324.254 290.443C323.254 290.111 322.254 289.784 321.254 289.457C319.861 289.002 318.471 288.549 317.081 288.096C315.408 287.551 313.734 287.009 312.061 286.462C310.218 285.859 308.372 285.258 306.527 284.655C304.621 284.03 302.713 283.405 300.807 282.776C298.947 282.163 280.579 275.75 279.566 275.29C276.757 274.016 273.936 272.767 271.168 271.413C268.657 270.183 266.184 268.863 263.852 267.318C261.597 265.826 259.486 264.119 257.618 262.16C255.848 260.302 254.257 258.254 252.792 256.142H252.789C252.411 255.592 252.038 255.04 251.677 254.485C249.466 251.088 247.602 247.47 246.078 243.714C244.441 239.674 243.223 235.487 242.284 231.235C241.298 226.779 240.61 222.257 240.148 217.719C239.676 213.12 239.445 208.502 239.378 203.879C239.363 202.605 239.359 201.334 239.359 200.06C239.359 198.498 239.359 196.934 239.359 195.369C239.359 193.548 239.359 191.727 239.359 189.906V189.426C239.359 173.622 241.408 160.085 245.503 148.819C249.6 137.554 256.48 128.191 266.131 120.73C275.789 113.269 288.518 107.781 304.319 104.265C320.121 100.751 339.587 99 362.702 99C369.432 99 376.46 99 383.773 99C391.087 99 396.213 99.1719 408.307 99.8791L397.337 158.695C374.222 158.111 375.576 157.821 361.823 157.821C352.17 157.821 344.195 158.329 337.904 159.356C331.61 160.378 326.636 162.061 322.979 164.398C319.322 166.74 316.835 169.888 315.518 173.84C314.2 177.788 313.539 182.837 313.539 188.986C313.539 189.288 313.542 189.596 313.542 189.906H313.545C313.568 193.153 313.685 196.401 313.925 199.639C314.163 202.814 314.443 206.056 315.565 209.059C316.732 212.19 318.766 214.808 321.382 216.864C323.835 218.794 326.683 220.262 329.606 221.335C330.1 221.516 330.603 221.676 331.105 221.841C332.105 222.173 333.105 222.497 334.105 222.826C335.498 223.279 336.888 223.732 338.28 224.187C339.951 224.732 341.625 225.275 343.298 225.822C345.141 226.423 346.986 227.026 348.832 227.629C350.74 228.253 352.646 228.878 354.552 229.506C356.414 230.118 374.78 236.533 375.792 236.993C378.602 238.267 381.423 239.514 384.193 240.871C386.702 242.098 389.175 243.421 391.509 244.966C393.761 246.457 395.876 248.165 397.74 250.124C399.511 251.981 401.104 254.028 402.567 256.142H402.57C402.95 256.689 403.323 257.241 403.681 257.798C405.892 261.196 407.759 264.814 409.28 268.57C410.917 272.607 412.135 276.797 413.075 281.049C414.061 285.505 414.748 290.024 415.213 294.565C415.683 299.163 415.913 303.782 415.981 308.405C416 309.676 416 310.95 416 312.224C416 313.786 416 315.35 416 316.914C416 318.736 416 320.557 416 322.378V322.857C416 329.924 415.591 336.535 414.772 342.693C409.28 397.119 358.409 406.662 346.449 408.968C331.517 411.848 313.584 413.284 292.658 413.284" fill="black"/>
<defs>
<linearGradient id="paint0_linear" x1="256" y1="0" x2="256" y2="512" gradientUnits="userSpaceOnUse">
<stop stop-color="#FF7900"/>
<stop offset="1" stop-color="#FFAE00"/>
</linearGradient>
</defs>
</svg>
